<svg width="48px" height="48px" viewBox="0 0 48 48" version="1.1" xmlns="http://www.w3.org/2000/svg">
    <path d="M 3 4.692 C 3 3.877 3.247 3.331 3.789 2.789 C 4.331 2.246 4.877 2 5.692 2 C 6.508 2 7.054 2.246 7.596 2.789 C 8.138 3.331 8.385 3.877 8.385 4.692 C 8.385 5.508 8.138 6.054 7.596 6.596 C 7.054 7.138 6.508 7.385 5.692 7.385 C 4.877 7.385 4.331 7.138 3.789 6.596 C 3.247 6.054 3 5.508 3 4.692 Z" fill="none" stroke="#000000" stroke-opacity="0.15" stroke-width="2"></path>
    <path d="M 39.615 4.692 C 39.615 3.877 39.862 3.331 40.404 2.789 C 40.946 2.246 41.492 2 42.308 2 C 43.123 2 43.669 2.246 44.211 2.789 C 44.754 3.331 45 3.877 45 4.692 C 45 5.508 44.754 6.054 44.211 6.596 C 43.669 7.138 43.123 7.385 42.308 7.385 C 41.492 7.385 40.946 7.138 40.404 6.596 C 39.862 6.054 39.615 5.508 39.615 4.692 Z" fill="none" stroke="#000000" stroke-opacity="0.15" stroke-width="2"></path>
    <path d="M 0.946 27.615 C 0.946 22.505 3.407 18.076 7.604 14.686 C 11.82 11.281 17.489 9.231 23.946 9.231 C 30.403 9.231 36.072 11.281 40.288 14.686 C 44.485 18.076 46.946 22.505 46.946 27.615 C 46.946 32.726 44.485 37.154 40.288 40.544 C 36.072 43.95 30.403 46 23.946 46 C 17.489 46 11.82 43.95 7.604 40.544 C 3.407 37.154 0.946 32.726 0.946 27.615 Z" fill="none" stroke="#000000" stroke-opacity="0.15" stroke-width="2"></path>
    <path d="M 29.587 21.175 L 29.589 21.175 C 29.624 21.174 29.636 21.175 29.671 21.179 C 29.706 21.182 29.717 21.184 29.752 21.191 C 29.787 21.198 29.797 21.201 29.831 21.211 C 29.865 21.221 29.876 21.225 29.909 21.239 C 29.942 21.252 29.952 21.257 29.983 21.274 C 30.015 21.29 30.024 21.296 30.053 21.316 C 30.083 21.336 30.092 21.342 30.119 21.365 C 30.147 21.387 30.155 21.395 30.18 21.42 C 30.205 21.445 30.213 21.453 30.235 21.481 C 30.258 21.508 30.264 21.517 30.284 21.547 C 30.304 21.576 30.31 21.586 30.326 21.618 C 30.344 21.649 30.348 21.658 30.361 21.691 C 30.375 21.724 30.379 21.735 30.389 21.769 C 30.399 21.803 30.402 21.813 30.409 21.848 C 30.416 21.883 30.418 21.894 30.421 21.93 C 30.425 21.965 30.426 21.976 30.425 22.012 L 30.425 29.364 C 30.426 29.399 30.425 29.41 30.421 29.445 C 30.418 29.481 30.416 29.492 30.409 29.527 C 30.402 29.562 30.4 29.573 30.389 29.606 C 30.379 29.641 30.375 29.651 30.361 29.684 C 30.348 29.717 30.343 29.727 30.326 29.758 C 30.31 29.79 30.304 29.799 30.284 29.828 C 30.264 29.858 30.258 29.867 30.235 29.894 C 30.213 29.922 30.205 29.93 30.18 29.955 C 30.155 29.98 30.147 29.988 30.119 30.01 C 30.092 30.033 30.083 30.039 30.053 30.059 C 30.024 30.079 30.014 30.085 29.983 30.101 C 29.952 30.119 29.942 30.123 29.909 30.136 C 29.876 30.15 29.865 30.154 29.831 30.164 C 29.797 30.174 29.787 30.177 29.752 30.184 C 29.717 30.191 29.706 30.193 29.67 30.196 C 29.635 30.2 29.624 30.201 29.588 30.2 L 29.586 30.2 C 29.551 30.201 29.54 30.2 29.505 30.196 C 29.469 30.193 29.458 30.191 29.423 30.184 C 29.388 30.177 29.378 30.174 29.344 30.164 C 29.31 30.154 29.299 30.15 29.266 30.136 C 29.233 30.123 29.223 30.119 29.192 30.101 C 29.161 30.085 29.151 30.079 29.122 30.059 C 29.092 30.039 29.083 30.033 29.056 30.01 C 29.028 29.988 29.02 29.98 28.995 29.955 C 28.97 29.93 28.962 29.922 28.94 29.894 C 28.917 29.867 28.911 29.858 28.891 29.828 C 28.871 29.799 28.865 29.789 28.848 29.757 C 28.831 29.726 28.827 29.716 28.814 29.684 C 28.8 29.651 28.796 29.64 28.786 29.606 C 28.775 29.572 28.773 29.562 28.766 29.527 C 28.759 29.492 28.757 29.481 28.754 29.445 C 28.75 29.41 28.749 29.399 28.75 29.363 L 28.75 22.011 C 28.749 21.976 28.75 21.965 28.754 21.93 C 28.757 21.894 28.759 21.883 28.766 21.848 C 28.773 21.813 28.776 21.803 28.786 21.769 C 28.796 21.735 28.8 21.724 28.814 21.691 C 28.827 21.658 28.832 21.648 28.849 21.617 C 28.865 21.585 28.871 21.576 28.891 21.547 C 28.911 21.517 28.917 21.508 28.94 21.481 C 28.962 21.453 28.97 21.445 28.995 21.42 C 29.02 21.395 29.028 21.387 29.056 21.365 C 29.083 21.342 29.092 21.336 29.122 21.316 C 29.151 21.296 29.161 21.29 29.193 21.273 C 29.224 21.256 29.233 21.252 29.266 21.239 C 29.299 21.225 29.31 21.221 29.344 21.211 C 29.378 21.201 29.388 21.198 29.423 21.191 C 29.458 21.184 29.47 21.182 29.505 21.179 C 29.54 21.175 29.551 21.174 29.586 21.175 Z" fill="none" stroke="#000000" stroke-opacity="0.15" stroke-width="2"></path>
    <path d="M 18.412 21.175 L 18.414 21.175 C 18.449 21.174 18.461 21.175 18.496 21.179 C 18.531 21.182 18.542 21.184 18.577 21.191 C 18.612 21.198 18.622 21.201 18.656 21.211 C 18.69 21.221 18.701 21.225 18.734 21.239 C 18.767 21.252 18.777 21.257 18.808 21.274 C 18.84 21.29 18.849 21.296 18.878 21.316 C 18.908 21.336 18.917 21.342 18.944 21.365 C 18.972 21.387 18.98 21.395 19.005 21.42 C 19.03 21.445 19.038 21.453 19.06 21.481 C 19.083 21.508 19.089 21.517 19.109 21.547 C 19.129 21.576 19.135 21.586 19.151 21.618 C 19.169 21.649 19.173 21.658 19.186 21.691 C 19.2 21.724 19.204 21.735 19.214 21.769 C 19.224 21.803 19.227 21.813 19.234 21.848 C 19.241 21.883 19.243 21.894 19.246 21.93 C 19.25 21.965 19.251 21.976 19.25 22.011 L 19.25 29.363 C 19.251 29.399 19.25 29.41 19.246 29.445 C 19.243 29.481 19.241 29.492 19.234 29.527 C 19.227 29.562 19.225 29.573 19.214 29.606 C 19.204 29.641 19.2 29.651 19.186 29.684 C 19.173 29.717 19.168 29.727 19.151 29.758 C 19.135 29.79 19.129 29.799 19.109 29.828 C 19.089 29.858 19.083 29.867 19.06 29.894 C 19.038 29.922 19.03 29.93 19.005 29.955 C 18.98 29.98 18.972 29.988 18.944 30.01 C 18.917 30.033 18.908 30.039 18.878 30.059 C 18.849 30.079 18.839 30.085 18.808 30.101 C 18.777 30.119 18.767 30.123 18.734 30.136 C 18.701 30.15 18.69 30.154 18.656 30.164 C 18.622 30.174 18.612 30.177 18.577 30.184 C 18.542 30.191 18.531 30.193 18.495 30.196 C 18.46 30.2 18.449 30.201 18.413 30.2 L 18.411 30.2 C 18.376 30.201 18.365 30.2 18.33 30.196 C 18.294 30.193 18.283 30.191 18.248 30.184 C 18.213 30.177 18.203 30.174 18.169 30.164 C 18.135 30.154 18.124 30.15 18.091 30.136 C 18.058 30.123 18.048 30.119 18.017 30.101 C 17.986 30.085 17.976 30.079 17.947 30.059 C 17.917 30.039 17.908 30.033 17.881 30.01 C 17.853 29.988 17.845 29.98 17.82 29.955 C 17.795 29.93 17.787 29.922 17.765 29.894 C 17.742 29.867 17.736 29.858 17.716 29.828 C 17.696 29.799 17.69 29.788 17.673 29.757 C 17.656 29.726 17.652 29.716 17.639 29.684 C 17.625 29.651 17.621 29.64 17.611 29.606 C 17.6 29.572 17.598 29.562 17.591 29.527 C 17.584 29.492 17.582 29.481 17.579 29.445 C 17.575 29.41 17.574 29.399 17.575 29.363 L 17.575 22.011 C 17.574 21.976 17.575 21.965 17.579 21.93 C 17.582 21.894 17.584 21.883 17.591 21.848 C 17.598 21.813 17.601 21.803 17.611 21.769 C 17.621 21.735 17.625 21.724 17.639 21.691 C 17.652 21.658 17.657 21.648 17.674 21.617 C 17.69 21.585 17.696 21.576 17.716 21.547 C 17.736 21.517 17.742 21.508 17.765 21.481 C 17.787 21.453 17.795 21.445 17.82 21.42 C 17.845 21.395 17.853 21.387 17.881 21.365 C 17.908 21.342 17.917 21.336 17.947 21.316 C 17.976 21.296 17.986 21.29 18.018 21.273 C 18.049 21.256 18.058 21.252 18.091 21.239 C 18.124 21.225 18.135 21.221 18.169 21.211 C 18.203 21.201 18.213 21.198 18.248 21.191 C 18.283 21.184 18.295 21.182 18.33 21.179 C 18.365 21.175 18.376 21.174 18.411 21.175 Z" fill="none" stroke="#000000" stroke-opacity="0.15" stroke-width="2"></path>
</svg>